PathFileType	4	(X/Y/Z)	SUBJ32_4_walk_RCNL2025.trc
DataRate	CameraRate	NumFrames	NumMarkers	Units	OrigDataRate	OrigDataStartFrame	OrigNumFrames
100	100	6	25	mm	100	103	273
Frame#	Time	R_Shoulder			L_Shoulder			C7			J_Notch			R_Elbow			L_Elbow			R_Wrist			L_Wrist			R_Asis			L_Asis			Sacral			Thoracic			Sternum			R_Thigh_Lateral			R_Knee_Lateral			R_Shank_Lateral			R_Ankle_Lateral			R_Heel			R_Toe			L_Thigh_Lateral			L_Knee_Lateral			L_Shank_Lateral			L_Ankle_Lateral			L_Heel			L_Toe		
		X1	Y1	Z1	X2	Y2	Z2	X3	Y3	Z3	X4	Y4	Z4	X5	Y5	Z5	X6	Y6	Z6	X7	Y7	Z7	X8	Y8	Z8	X9	Y9	Z9	X10	Y10	Z10	X11	Y11	Z11	X12	Y12	Z12	X13	Y13	Z13	X14	Y14	Z14	X15	Y15	Z15	X16	Y16	Z16	X17	Y17	Z17	X18	Y18	Z18	X19	Y19	Z19	X20	Y20	Z20	X21	Y21	Z21	X22	Y22	Z22	X23	Y23	Z23	X24	Y24	Z24	X25	Y25	Z25
103	1.02000000	-461.803528	1377.561523	322.701782	-479.664154	1355.478760	-47.044434	-495.021790	1446.750122	145.672272	-375.629242	1339.342651	137.715317	-536.721924	1056.396240	449.713989	-534.324097	1036.663208	-137.827667	-456.257843	820.374023	480.411957	-421.859619	802.899261	-153.405807	-392.759369	909.837341	271.665833	-404.045197	902.784607	20.027225	-596.468262	951.030334	156.519821	-599.907776	1210.347168	153.420944	-305.367493	1119.012817	145.082672	-391.930786	552.962219	360.998566	-377.657471	471.157837	317.084900	-451.465088	337.009766	383.504639	-570.360107	146.983719	269.904510	-618.846741	159.008331	214.581497	-465.454224	72.265419	245.415573	-491.162445	557.081482	-62.038052	-487.825073	463.764069	-11.949186	-510.608154	238.937988	-26.137791	-522.620605	54.786526	75.294266	-571.242371	49.324402	125.089417	-385.047333	39.825584	102.152367
104	1.03000000	-451.601440	1377.538818	322.577301	-469.308319	1355.631958	-47.202999	-484.680786	1446.766357	145.509888	-365.501099	1339.163818	137.507019	-529.101562	1056.786621	449.152710	-521.850220	1037.180786	-139.859970	-450.780884	820.127167	480.519287	-405.163269	805.658752	-155.568932	-382.060883	909.811768	270.805298	-395.614075	902.535034	19.117392	-586.814575	951.104614	157.153107	-589.977844	1210.495361	153.576370	-295.640198	1118.799683	144.163101	-375.666473	554.207031	359.558777	-361.158508	472.231110	314.916779	-429.501984	334.300812	381.529144	-539.463501	138.568726	268.416077	-588.286194	147.732758	212.722275	-430.538940	69.836922	244.775269	-486.775665	557.195984	-61.756290	-484.786987	463.895935	-11.423900	-509.444672	239.237579	-25.793404	-522.577209	55.073559	75.657646	-571.000122	49.668957	125.632851	-384.980103	39.778217	101.991417
105	1.04000000	-441.351685	1377.297241	322.501617	-458.968201	1355.617798	-47.303154	-474.296753	1446.585693	145.408615	-355.349426	1338.764771	137.342163	-521.338562	1056.985840	448.685303	-509.438477	1037.556030	-141.829163	-445.119049	819.712280	480.685165	-388.662079	808.300690	-157.673058	-371.410187	909.563171	270.034424	-387.172729	902.065552	18.288107	-577.193726	950.994812	157.788467	-580.047546	1210.486328	153.795486	-285.927277	1118.366821	143.239090	-360.053802	555.248779	358.059479	-345.292328	473.040894	312.739197	-408.070496	331.542542	379.469299	-507.977692	130.207123	266.829315	-556.979614	136.488892	210.707443	-395.363586	67.642708	244.066788	-482.129272	557.173523	-61.383030	-481.447510	463.928253	-10.797919	-508.057678	239.460617	-25.329901	-522.486633	55.385155	76.138565	-570.737183	50.016827	126.314034	-384.863922	39.716454	101.886330
106	1.05000000	-431.046997	1376.832153	322.473450	-448.632599	1355.437744	-47.349316	-463.863708	1446.209106	145.366745	-345.163086	1338.143188	137.220001	-513.413086	1056.987183	448.316406	-497.083740	1037.791382	-143.734512	-439.243652	819.126251	480.911438	-372.368668	810.807129	-159.708038	-360.810913	909.096802	269.364777	-378.697266	901.393799	17.539114	-567.596008	950.701965	158.424347	-570.100830	1210.319824	154.071686	-276.226593	1117.712402	142.323181	-345.131439	556.052795	356.533905	-330.098969	473.534332	310.587982	-387.227844	328.726135	377.361420	-475.954712	122.037003	265.167816	-525.009338	125.444145	208.608047	-360.006470	65.783745	243.250397	-477.208252	557.008911	-60.939747	-477.800690	463.844299	-10.104044	-506.424408	239.588654	-24.770300	-522.348083	55.709209	76.727615	-570.466309	50.362961	127.112206	-384.689392	39.645336	101.842461
107	1.06000000	-420.678619	1376.141968	322.491058	-438.286987	1355.094482	-47.344032	-453.374420	1445.640137	145.385452	-334.930725	1337.300537	137.139160	-505.311310	1056.786499	448.048767	-484.781464	1037.892212	-145.575775	-433.130966	818.368225	481.197708	-356.293777	813.163452	-161.664352	-350.279175	908.423706	268.790955	-370.166260	900.538574	16.871391	-558.011780	950.229980	159.060226	-560.123169	1209.995972	154.394882	-266.532654	1116.836548	141.427567	-330.930084	556.583069	355.016968	-315.599823	473.659454	308.501831	-366.972473	325.822998	375.246765	-443.462067	114.194275	263.446655	-492.467987	114.765244	206.490448	-324.548798	64.356209	242.295517	-471.999359	556.699402	-60.448647	-473.837616	463.627014	-9.371695	-504.509857	239.606186	-24.139681	-522.159546	56.030334	77.410500	-570.181885	50.699642	127.992950	-384.450409	39.569084	101.865372
108	1.07000000	-410.238434	1375.229370	322.553619	-427.916199	1354.591553	-47.286083	-442.822540	1444.883911	145.467392	-324.643219	1336.243408	137.099579	-497.025818	1056.384277	447.883453	-472.528503	1037.865601	-147.351562	-426.762512	817.439819	481.540070	-340.447556	815.358521	-163.535126	-339.835907	907.555969	268.295868	-361.566345	899.516113	16.288406	-548.431030	949.583984	159.696564	-550.104675	1209.515381	154.753418	-256.836273	1115.742432	140.562439	-317.479309	556.800476	353.542206	-301.792328	473.372894	306.517822	-347.232971	322.799011	373.169800	-410.586151	106.808411	261.677582	-459.455383	104.611923	204.410675	-289.071411	63.453907	241.176392	-466.495697	556.245544	-59.933323	-469.550262	463.266174	-8.628534	-502.281799	239.504852	-23.465818	-521.924438	56.336128	78.164696	-569.874695	51.023487	128.916092	-384.153229	39.490124	101.957878
